<svg xmlns="http://www.w3.org/2000/svg" xmlns:xlink="http://www.w3.org/1999/xlink" style="enable-background:new 0 0 1390.6 300" id="Layer_1" x="0" y="0" version="1.1" viewBox="0 0 1390.6 300" xml:space="preserve"><style type="text/css">.st0{opacity:.1}.st1{fill:none;stroke:#2a363b}.st1,.st10,.st11,.st12{stroke-width:5;stroke-linecap:round;stroke-linejoin:round;stroke-miterlimit:10}.st2,.st3,.st4,.st5,.st6,.st7,.st8{fill:none}.st2,.st3,.st4,.st5,.st6,.st7,.st8,.st9{stroke-width:5;stroke-linecap:round;stroke-linejoin:round;stroke-miterlimit:10}.st2{stroke:#fd0}.st3{stroke:#f6378f}.st4{stroke:#90d26d}.st10,.st11,.st12{opacity:.1;enable-background:new}.st5{stroke:#90eee1}.st5,.st6,.st7,.st8,.st9{opacity:.1;enable-background:new}.st6{stroke:#574b90}.st7{stroke:#90d26d}.st8{stroke:#fd0}.st9{fill:#90eee1;stroke:#90eee1}.st10{fill:#fd0;stroke:#fd0}.st11{fill:#2a363b;stroke:#2a363b}.st12{fill:#90d26d;stroke:#90d26d}</style><g class="st0"><line x1="275.4" x2="265.3" y1="102.3" y2="112.4" class="st1"/><line x1="275.4" x2="265.3" y1="112.4" y2="102.3" class="st1"/></g><g class="st0"><line x1="115.9" x2="105.9" y1="261.8" y2="271.9" class="st2"/><line x1="115.9" x2="105.9" y1="271.9" y2="261.8" class="st2"/></g><g class="st0"><line x1="403" x2="392.9" y1="229.9" y2="240" class="st3"/><line x1="403" x2="392.9" y1="240" y2="229.9" class="st3"/></g><g class="st0"><line x1="554.2" x2="541" y1="250" y2="263.2" class="st4"/><line x1="554.2" x2="541" y1="263.2" y2="250" class="st4"/></g><g class="st0"><line x1="889.6" x2="879.5" y1="118.6" y2="128.7" class="st4"/><line x1="889.6" x2="879.5" y1="128.7" y2="118.6" class="st4"/></g><g class="st0"><line x1="421.6" x2="411.5" y1="63.9" y2="73.9" class="st4"/><line x1="421.6" x2="411.5" y1="73.9" y2="63.9" class="st4"/></g><g class="st0"><line x1="665" x2="648" y1="60.4" y2="77.4" class="st2"/><line x1="665" x2="648" y1="77.4" y2="60.4" class="st2"/></g><g class="st0"><line x1="710.6" x2="693.6" y1="269.1" y2="286.1" class="st3"/><line x1="710.6" x2="693.6" y1="286.1" y2="269.1" class="st3"/></g><g class="st0"><line x1="994.3" x2="977.3" y1="226.4" y2="243.4" class="st1"/><line x1="994.3" x2="977.3" y1="243.4" y2="226.4" class="st1"/></g><g class="st0"><line x1="1348.3" x2="1335.4" y1="70.5" y2="83.4" class="st3"/><line x1="1348.3" x2="1335.4" y1="83.4" y2="70.5" class="st3"/></g><g class="st0"><line x1="1233.9" x2="1221" y1="234.1" y2="247" class="st2"/><line x1="1233.9" x2="1221" y1="247" y2="234.1" class="st2"/></g><g class="st0"><line x1="1105.4" x2="1088.4" y1="40.4" y2="57.4" class="st3"/><line x1="1105.4" x2="1088.4" y1="57.4" y2="40.4" class="st3"/></g><g class="st0"><line x1="73.5" x2="56.5" y1="191.4" y2="208.3" class="st3"/><line x1="73.5" x2="56.5" y1="208.3" y2="191.4" class="st3"/></g><circle cx="94.3" cy="128.4" r="7" class="st5"/><circle cx="231.1" cy="240.6" r="7" class="st6"/><ellipse cx="439.7" cy="163.4" class="st5" rx="12.1" ry="12.1" transform="matrix(0.7071 -0.7071 0.7071 0.7071 13.2532 358.7522)"/><circle cx="634.2" cy="209.7" r="7" class="st7"/><circle cx="809.3" cy="69.8" r="7.9" class="st5"/><circle cx="865.2" cy="277.6" r="7" class="st8"/><circle cx="1051.3" cy="169.4" r="7" class="st7"/><circle cx="1234.4" cy="92" r="7" class="st9"/><circle cx="1325.6" cy="277.6" r="7" class="st6"/><rect width="28.8" height="28.8" x="159.9" y="20.1" class="st10"/><rect width="11.5" height="11.5" x="531.9" y="43.2" class="st8"/><rect width="11.5" height="11.5" x="761" y="190" class="st11"/><rect width="20.2" height="20.2" x="1328.6" y="152.4" class="st12" transform="matrix(0.7071 -0.7071 0.7071 0.7071 277.1958 994.2236)"/><rect width="11.5" height="11.5" x="985.8" y="70.1" class="st6"/><rect width="11.5" height="11.5" x="1143.3" y="151.2" class="st8"/><rect width="11.5" height="11.5" x="1096.9" y="271.9" class="st6"/><path d="M306.7,172.7c-13.1,4.1-21.1,2.3-26.2-0.5c-6.3-3.4-8.5-8.6-14-8.9c-5.8-0.3-10.9,5.2-14.5,10.3" class="st5"/><path d="M815.7,126.7c-13.1,4.1-43.9,5.2-49,2.4" class="st6"/><path d="M1308.7,40.7c-13.7-9.1-22.3,17.6-27.4,14.8c-6.3-3.4-7.4-23.9-12.9-24.2c-5.8-0.3-10.9,5.2-14.5,10.3" class="st5"/></svg>